<svg xmlns="http://www.w3.org/2000/svg" viewBox="0 0 1240 780" font-family="Inter,Segoe UI,Arial,sans-serif">
  <defs><linearGradient id="hero" x1="0" y1="0" x2="1" y2="1"><stop offset="0" stop-color="#6366F1"/><stop offset="1" stop-color="#A78BFA"/></linearGradient></defs>
  <rect width="1240" height="780" rx="18" fill="#0B0F19"/>
  <rect width="1240" height="46" rx="18" fill="#0F1626"/><rect y="30" width="1240" height="16" fill="#0F1626"/>
  <circle cx="28" cy="23" r="6" fill="#FF5F57"/><circle cx="50" cy="23" r="6" fill="#FEBC2E"/><circle cx="72" cy="23" r="6" fill="#28C840"/>
  <rect x="470" y="13" width="300" height="20" rx="10" fill="#0A0F1B"/><text x="620" y="27" text-anchor="middle" font-size="11" fill="#5B6B86">app.marketsync.link</text>
  <rect x="0" y="46" width="208" height="734" fill="#0E1424"/><line x1="208" y1="46" x2="208" y2="780" stroke="#1F2A3D"/>
  <text x="24" y="82" font-size="20" fill="#fff" font-weight="400">|</text><text x="40" y="84" font-size="17" font-weight="800" fill="#fff">Market<tspan fill="#6366F1">Sync</tspan></text>
  <g transform="translate(20 118)">
      <rect x="-6" y="-16" width="184" height="38" rx="9" fill="#6366F1" opacity="0.16"/><rect x="-6" y="-16" width="3" height="38" rx="1.5" fill="#6366F1"/>
      <circle cx="10" cy="3" r="12" fill="#6366F1" opacity="0.25"/>
      <path d="M3 12l9-9 9 9M5 10v9h5v-6h4v6h5v-9" transform="translate(2 -5) scale(0.66)" fill="none" stroke="#6366F1" stroke-width="2" stroke-linecap="round" stroke-linejoin="round"/>
      <text x="32" y="8" font-size="14" font-weight="700" fill="#E6EDF7" font-family="Inter,Arial,sans-serif">Dashboard</text>
    </g><g transform="translate(20 164)">
      
      <circle cx="10" cy="3" r="12" fill="#182236" opacity="1"/>
      <path d="M4 5h16v4H4zM4 11h16v8H4" transform="translate(2 -5) scale(0.66)" fill="none" stroke="#93A2BC" stroke-width="2" stroke-linecap="round" stroke-linejoin="round"/>
      <text x="32" y="8" font-size="14" font-weight="500" fill="#93A2BC" font-family="Inter,Arial,sans-serif">Inventory</text>
    </g><g transform="translate(20 210)">
      
      <circle cx="10" cy="3" r="12" fill="#182236" opacity="1"/>
      <path d="M12 2a10 10 0 1010 10" transform="translate(2 -5) scale(0.66)" fill="none" stroke="#93A2BC" stroke-width="2" stroke-linecap="round" stroke-linejoin="round"/>
      <text x="32" y="8" font-size="14" font-weight="500" fill="#93A2BC" font-family="Inter,Arial,sans-serif">Intelligence</text>
    </g><g transform="translate(20 256)">
      
      <circle cx="10" cy="3" r="12" fill="#182236" opacity="1"/>
      <path d="M4 4h16v12H4zM8 20h8" transform="translate(2 -5) scale(0.66)" fill="none" stroke="#93A2BC" stroke-width="2" stroke-linecap="round" stroke-linejoin="round"/>
      <text x="32" y="8" font-size="14" font-weight="500" fill="#93A2BC" font-family="Inter,Arial,sans-serif">Deals</text>
    </g><g transform="translate(20 302)">
      
      <circle cx="10" cy="3" r="12" fill="#182236" opacity="1"/>
      <path d="M3 6h18M3 12h18M3 18h12" transform="translate(2 -5) scale(0.66)" fill="none" stroke="#93A2BC" stroke-width="2" stroke-linecap="round" stroke-linejoin="round"/>
      <text x="32" y="8" font-size="14" font-weight="500" fill="#93A2BC" font-family="Inter,Arial,sans-serif">CRM</text>
    </g><g transform="translate(20 348)">
      
      <circle cx="10" cy="3" r="12" fill="#182236" opacity="1"/>
      <path d="M12 3l9 6-9 6-9-6z" transform="translate(2 -5) scale(0.66)" fill="none" stroke="#93A2BC" stroke-width="2" stroke-linecap="round" stroke-linejoin="round"/>
      <text x="32" y="8" font-size="14" font-weight="500" fill="#93A2BC" font-family="Inter,Arial,sans-serif">Reports</text>
    </g>
  <g transform="translate(20 720)"><circle cx="12" cy="0" r="14" fill="url(#hero)"/><text x="12" y="5" text-anchor="middle" font-size="12" font-weight="700" fill="#fff">RM</text><text x="34" y="-2" font-size="12" font-weight="600" fill="#E6EDF7">Riverside Motors</text><text x="34" y="14" font-size="10.5" fill="#5B6B86">Dealer Admin</text></g>
  <text x="240" y="92" font-size="23" font-weight="800" fill="#E6EDF7">Dashboard</text>
  
  <rect x="980" y="70" width="236" height="34" rx="10" fill="#131A2C" stroke="#1F2A3D"/><circle cx="1000" cy="87" r="6" fill="none" stroke="#5B6B86" stroke-width="2"/><line x1="1005" y1="92" x2="1010" y2="97" stroke="#5B6B86" stroke-width="2"/><text x="1018" y="91" font-size="12" fill="#5B6B86">Search VIN, customer…</text>
  <line x1="208" y1="120" x2="1240" y2="120" stroke="#1F2A3D"/>
  <rect x="236" y="144" width="222" height="100" rx="14" fill="#131A2C" stroke="#1F2A3D"/><text x="258" y="180" font-size="12" fill="#93A2BC" font-weight="500">Live inventory</text><text x="258" y="214" font-size="28" fill="#6366F1" font-weight="800">142</text><text x="258" y="236" font-size="11" fill="#5B6B86" font-weight="500">+8 this week</text><circle cx="428" cy="172" r="16" fill="#6366F1" opacity="0.16"/><rect x="482" y="144" width="222" height="100" rx="14" fill="#131A2C" stroke="#1F2A3D"/><text x="504" y="180" font-size="12" fill="#93A2BC" font-weight="500">Active leads</text><text x="504" y="214" font-size="28" fill="#A78BFA" font-weight="800">57</text><text x="504" y="236" font-size="11" fill="#5B6B86" font-weight="500">12 new today</text><circle cx="674" cy="172" r="16" fill="#A78BFA" opacity="0.16"/><rect x="728" y="144" width="222" height="100" rx="14" fill="#131A2C" stroke="#1F2A3D"/><text x="750" y="180" font-size="12" fill="#93A2BC" font-weight="500">Sold this month</text><text x="750" y="214" font-size="28" fill="#10B981" font-weight="800">31</text><text x="750" y="236" font-size="11" fill="#5B6B86" font-weight="500">+19% MoM</text><circle cx="920" cy="172" r="16" fill="#10B981" opacity="0.16"/><rect x="974" y="144" width="222" height="100" rx="14" fill="#131A2C" stroke="#1F2A3D"/><text x="996" y="180" font-size="12" fill="#93A2BC" font-weight="500">Avg days to sell</text><text x="996" y="214" font-size="28" fill="#F59E0B" font-weight="800">24</text><text x="996" y="236" font-size="11" fill="#5B6B86" font-weight="500">−3 days</text><circle cx="1166" cy="172" r="16" fill="#F59E0B" opacity="0.16"/><rect x="236" y="268" width="600" height="346" rx="14" fill="#131A2C" stroke="#1F2A3D"/><text x="260" y="302" font-size="14" fill="#E6EDF7" font-weight="700">Listings posted · last 14 days</text><rect x="700" y="286" width="110" height="22" rx="11" fill="#6366F1" opacity="0.18"/><text x="755" y="301" text-anchor="middle" font-size="11" font-weight="700" fill="#6366F1">FB + WEBSITE</text><rect x="264" y="476" width="26" height="84" rx="5" fill="url(#hero)" opacity="0.7"/><rect x="304" y="438" width="26" height="122" rx="5" fill="url(#hero)" opacity="0.79"/><rect x="344" y="451" width="26" height="109" rx="5" fill="url(#hero)" opacity="0.76"/><rect x="384" y="413" width="26" height="147" rx="5" fill="url(#hero)" opacity="0.85"/><rect x="424" y="426" width="26" height="134" rx="5" fill="url(#hero)" opacity="0.8200000000000001"/><rect x="464" y="388" width="26" height="172" rx="5" fill="url(#hero)" opacity="0.9099999999999999"/><rect x="504" y="434" width="26" height="126" rx="5" fill="url(#hero)" opacity="0.8"/><rect x="544" y="371" width="26" height="189" rx="5" fill="url(#hero)" opacity="0.95"/><rect x="584" y="405" width="26" height="155" rx="5" fill="url(#hero)" opacity="0.87"/><rect x="624" y="358" width="26" height="202" rx="5" fill="url(#hero)" opacity="0.98"/><rect x="664" y="417" width="26" height="143" rx="5" fill="url(#hero)" opacity="0.8400000000000001"/><rect x="704" y="375" width="26" height="185" rx="5" fill="url(#hero)" opacity="0.94"/><rect x="744" y="392" width="26" height="168" rx="5" fill="url(#hero)" opacity="0.9"/><rect x="784" y="350" width="26" height="210" rx="5" fill="url(#hero)" opacity="1"/><line x1="260" y1="562" x2="812" y2="562" stroke="#1F2A3D"/><text x="260" y="592" font-size="12" fill="#93A2BC" font-weight="600">Total 1,284 listings · 96 today</text><rect x="860" y="268" width="356" height="346" rx="14" fill="#131A2C" stroke="#1F2A3D"/><text x="884" y="302" font-size="14" fill="#E6EDF7" font-weight="700">Recent activity</text><circle cx="896" cy="336" r="5" fill="#6366F1"/><line x1="896" y1="341" x2="896" y2="375" stroke="#1F2A3D"/><text x="916" y="340" font-size="12" fill="#E6EDF7" font-weight="500">2021 RAV4 posted to Marketplace</text><text x="916" y="356" font-size="10.5" fill="#5B6B86" font-weight="500">3 min ago</text><circle cx="896" cy="380" r="5" fill="#A78BFA"/><line x1="896" y1="385" x2="896" y2="419" stroke="#1F2A3D"/><text x="916" y="384" font-size="12" fill="#E6EDF7" font-weight="500">New lead · Dana W. auto-assigned</text><text x="916" y="400" font-size="10.5" fill="#5B6B86" font-weight="500">10 min ago</text><circle cx="896" cy="424" r="5" fill="#10B981"/><line x1="896" y1="429" x2="896" y2="463" stroke="#1F2A3D"/><text x="916" y="428" font-size="12" fill="#E6EDF7" font-weight="500">2019 F-150 marked Sold</text><text x="916" y="444" font-size="10.5" fill="#5B6B86" font-weight="500">17 min ago</text><circle cx="896" cy="468" r="5" fill="#F59E0B"/><line x1="896" y1="473" x2="896" y2="507" stroke="#1F2A3D"/><text x="916" y="472" font-size="12" fill="#E6EDF7" font-weight="500">Price drop flagged · 2020 CX-5</text><text x="916" y="488" font-size="10.5" fill="#5B6B86" font-weight="500">24 min ago</text><circle cx="896" cy="512" r="5" fill="#38BDF8"/><line x1="896" y1="517" x2="896" y2="551" stroke="#1F2A3D"/><text x="916" y="516" font-size="12" fill="#E6EDF7" font-weight="500">Appraisal saved · 2022 Civic</text><text x="916" y="532" font-size="10.5" fill="#5B6B86" font-weight="500">31 min ago</text><circle cx="896" cy="556" r="5" fill="#10B981"/><line x1="896" y1="561" x2="896" y2="595" stroke="#1F2A3D"/><text x="916" y="560" font-size="12" fill="#E6EDF7" font-weight="500">Delivery logged · Terrence B.</text><text x="916" y="576" font-size="10.5" fill="#5B6B86" font-weight="500">38 min ago</text>
</svg>