<svg xmlns="http://www.w3.org/2000/svg" viewBox="0 0 1240 780" font-family="Inter,Segoe UI,Arial,sans-serif">
  <defs><linearGradient id="hero" x1="0" y1="0" x2="1" y2="1"><stop offset="0" stop-color="#6366F1"/><stop offset="1" stop-color="#A78BFA"/></linearGradient></defs>
  <rect width="1240" height="780" rx="18" fill="#0B0F19"/>
  <rect width="1240" height="46" rx="18" fill="#0F1626"/><rect y="30" width="1240" height="16" fill="#0F1626"/>
  <circle cx="28" cy="23" r="6" fill="#FF5F57"/><circle cx="50" cy="23" r="6" fill="#FEBC2E"/><circle cx="72" cy="23" r="6" fill="#28C840"/>
  <rect x="470" y="13" width="300" height="20" rx="10" fill="#0A0F1B"/><text x="620" y="27" text-anchor="middle" font-size="11" fill="#5B6B86">app.marketsync.link</text>
  <rect x="0" y="46" width="208" height="734" fill="#0E1424"/><line x1="208" y1="46" x2="208" y2="780" stroke="#1F2A3D"/>
  <text x="24" y="82" font-size="20" fill="#fff" font-weight="400">|</text><text x="40" y="84" font-size="17" font-weight="800" fill="#fff">Market<tspan fill="#6366F1">Sync</tspan></text>
  <g transform="translate(20 118)">
      
      <circle cx="10" cy="3" r="12" fill="#182236" opacity="1"/>
      <path d="M3 12l9-9 9 9M5 10v9h5v-6h4v6h5v-9" transform="translate(2 -5) scale(0.66)" fill="none" stroke="#93A2BC" stroke-width="2" stroke-linecap="round" stroke-linejoin="round"/>
      <text x="32" y="8" font-size="14" font-weight="500" fill="#93A2BC" font-family="Inter,Arial,sans-serif">Dashboard</text>
    </g><g transform="translate(20 164)">
      
      <circle cx="10" cy="3" r="12" fill="#182236" opacity="1"/>
      <path d="M4 5h16v4H4zM4 11h16v8H4" transform="translate(2 -5) scale(0.66)" fill="none" stroke="#93A2BC" stroke-width="2" stroke-linecap="round" stroke-linejoin="round"/>
      <text x="32" y="8" font-size="14" font-weight="500" fill="#93A2BC" font-family="Inter,Arial,sans-serif">Inventory</text>
    </g><g transform="translate(20 210)">
      
      <circle cx="10" cy="3" r="12" fill="#182236" opacity="1"/>
      <path d="M12 2a10 10 0 1010 10" transform="translate(2 -5) scale(0.66)" fill="none" stroke="#93A2BC" stroke-width="2" stroke-linecap="round" stroke-linejoin="round"/>
      <text x="32" y="8" font-size="14" font-weight="500" fill="#93A2BC" font-family="Inter,Arial,sans-serif">Intelligence</text>
    </g><g transform="translate(20 256)">
      
      <circle cx="10" cy="3" r="12" fill="#182236" opacity="1"/>
      <path d="M4 4h16v12H4zM8 20h8" transform="translate(2 -5) scale(0.66)" fill="none" stroke="#93A2BC" stroke-width="2" stroke-linecap="round" stroke-linejoin="round"/>
      <text x="32" y="8" font-size="14" font-weight="500" fill="#93A2BC" font-family="Inter,Arial,sans-serif">Deals</text>
    </g><g transform="translate(20 302)">
      <rect x="-6" y="-16" width="184" height="38" rx="9" fill="#6366F1" opacity="0.16"/><rect x="-6" y="-16" width="3" height="38" rx="1.5" fill="#6366F1"/>
      <circle cx="10" cy="3" r="12" fill="#6366F1" opacity="0.25"/>
      <path d="M3 6h18M3 12h18M3 18h12" transform="translate(2 -5) scale(0.66)" fill="none" stroke="#6366F1" stroke-width="2" stroke-linecap="round" stroke-linejoin="round"/>
      <text x="32" y="8" font-size="14" font-weight="700" fill="#E6EDF7" font-family="Inter,Arial,sans-serif">CRM</text>
    </g><g transform="translate(20 348)">
      
      <circle cx="10" cy="3" r="12" fill="#182236" opacity="1"/>
      <path d="M12 3l9 6-9 6-9-6z" transform="translate(2 -5) scale(0.66)" fill="none" stroke="#93A2BC" stroke-width="2" stroke-linecap="round" stroke-linejoin="round"/>
      <text x="32" y="8" font-size="14" font-weight="500" fill="#93A2BC" font-family="Inter,Arial,sans-serif">Reports</text>
    </g>
  <g transform="translate(20 720)"><circle cx="12" cy="0" r="14" fill="url(#hero)"/><text x="12" y="5" text-anchor="middle" font-size="12" font-weight="700" fill="#fff">RM</text><text x="34" y="-2" font-size="12" font-weight="600" fill="#E6EDF7">Riverside Motors</text><text x="34" y="14" font-size="10.5" fill="#5B6B86">Dealer Admin</text></g>
  <text x="240" y="92" font-size="23" font-weight="800" fill="#E6EDF7">CRM</text>
  
  <rect x="980" y="70" width="236" height="34" rx="10" fill="#131A2C" stroke="#1F2A3D"/><circle cx="1000" cy="87" r="6" fill="none" stroke="#5B6B86" stroke-width="2"/><line x1="1005" y1="92" x2="1010" y2="97" stroke="#5B6B86" stroke-width="2"/><text x="1018" y="91" font-size="12" fill="#5B6B86">Search VIN, customer…</text>
  <line x1="208" y1="120" x2="1240" y2="120" stroke="#1F2A3D"/>
  <rect x="236" y="144" width="222" height="86" rx="14" fill="#131A2C" stroke="#1F2A3D"/><circle cx="258" cy="176" r="5" fill="#5B6B86"/><text x="274" y="180" font-size="12" fill="#93A2BC" font-weight="600">Uncontacted</text><text x="258" y="214" font-size="24" fill="#E6EDF7" font-weight="800">8</text><rect x="482" y="144" width="222" height="86" rx="14" fill="#131A2C" stroke="#1F2A3D"/><circle cx="504" cy="176" r="5" fill="#38BDF8"/><text x="520" y="180" font-size="12" fill="#93A2BC" font-weight="600">Contacted</text><text x="504" y="214" font-size="24" fill="#E6EDF7" font-weight="800">14</text><rect x="728" y="144" width="222" height="86" rx="14" fill="#131A2C" stroke="#1F2A3D"/><circle cx="750" cy="176" r="5" fill="#A78BFA"/><text x="766" y="180" font-size="12" fill="#93A2BC" font-weight="600">Appointment</text><text x="750" y="214" font-size="24" fill="#E6EDF7" font-weight="800">6</text><rect x="974" y="144" width="222" height="86" rx="14" fill="#131A2C" stroke="#1F2A3D"/><circle cx="996" cy="176" r="5" fill="#10B981"/><text x="1012" y="180" font-size="12" fill="#93A2BC" font-weight="600">Sold</text><text x="996" y="214" font-size="24" fill="#E6EDF7" font-weight="800">31</text><rect x="236" y="254" width="980" height="360" rx="14" fill="#131A2C" stroke="#1F2A3D"/><text x="260" y="288" font-size="15" fill="#E6EDF7" font-weight="700">Customers</text><rect x="1120" y="272" width="74" height="22" rx="11" fill="#6366F1" opacity="0.18"/><text x="1157" y="287" text-anchor="middle" font-size="11" font-weight="700" fill="#6366F1">57 TOTAL</text><text x="280" y="326" font-size="10" fill="#5B6B86" font-weight="700">NAME</text><text x="470" y="326" font-size="10" fill="#5B6B86" font-weight="700">VEHICLE OF INTEREST</text><text x="760" y="326" font-size="10" fill="#5B6B86" font-weight="700">SOURCE</text><text x="900" y="326" font-size="10" fill="#5B6B86" font-weight="700">REP</text><text x="1030" y="326" font-size="10" fill="#5B6B86" font-weight="700">STATUS</text><line x1="260" y1="336" x2="1192" y2="336" stroke="#1F2A3D"/><rect x="264" y="350" width="924" height="34" rx="8" fill="transparent"/><circle cx="288" cy="368" r="11" fill="#A78BFA" opacity="0.2"/><text x="288" y="372" text-anchor="middle" font-size="10" font-weight="700" fill="#A78BFA">D</text><text x="308" y="372" font-size="12.5" fill="#E6EDF7" font-weight="700">Dana Whitfield</text><text x="470" y="372" font-size="12" fill="#93A2BC" font-weight="500">2021 Toyota RAV4 XLE</text><text x="760" y="372" font-size="12" fill="#93A2BC" font-weight="500">Facebook</text><text x="900" y="372" font-size="12" fill="#93A2BC" font-weight="500">A. Cruz</text><rect x="1030" y="358" width="95" height="22" rx="11" fill="#A78BFA" opacity="0.18"/><text x="1077.5" y="373" text-anchor="middle" font-size="11" font-weight="700" fill="#A78BFA">Appointment</text><rect x="264" y="390" width="924" height="34" rx="8" fill="#101828"/><circle cx="288" cy="408" r="11" fill="#38BDF8" opacity="0.2"/><text x="288" y="412" text-anchor="middle" font-size="10" font-weight="700" fill="#38BDF8">M</text><text x="308" y="412" font-size="12.5" fill="#E6EDF7" font-weight="700">Marcus Lee</text><text x="470" y="412" font-size="12" fill="#93A2BC" font-weight="500">2020 Ford F-150 XLT</text><text x="760" y="412" font-size="12" fill="#93A2BC" font-weight="500">Website</text><text x="900" y="412" font-size="12" fill="#93A2BC" font-weight="500">J. Patel</text><rect x="1030" y="398" width="81" height="22" rx="11" fill="#38BDF8" opacity="0.18"/><text x="1070.5" y="413" text-anchor="middle" font-size="11" font-weight="700" fill="#38BDF8">Contacted</text><rect x="264" y="430" width="924" height="34" rx="8" fill="transparent"/><circle cx="288" cy="448" r="11" fill="#10B981" opacity="0.2"/><text x="288" y="452" text-anchor="middle" font-size="10" font-weight="700" fill="#10B981">P</text><text x="308" y="452" font-size="12.5" fill="#E6EDF7" font-weight="700">Priya Anand</text><text x="470" y="452" font-size="12" fill="#93A2BC" font-weight="500">2022 Honda Civic Sport</text><text x="760" y="452" font-size="12" fill="#93A2BC" font-weight="500">Marketplace</text><text x="900" y="452" font-size="12" fill="#93A2BC" font-weight="500">A. Cruz</text><rect x="1030" y="438" width="46" height="22" rx="11" fill="#10B981" opacity="0.18"/><text x="1053" y="453" text-anchor="middle" font-size="11" font-weight="700" fill="#10B981">Sold</text><rect x="264" y="470" width="924" height="34" rx="8" fill="#101828"/><circle cx="288" cy="488" r="11" fill="#F59E0B" opacity="0.2"/><text x="288" y="492" text-anchor="middle" font-size="10" font-weight="700" fill="#F59E0B">T</text><text x="308" y="492" font-size="12.5" fill="#E6EDF7" font-weight="700">Terrence Boyd</text><text x="470" y="492" font-size="12" fill="#93A2BC" font-weight="500">2019 Tesla Model 3</text><text x="760" y="492" font-size="12" fill="#93A2BC" font-weight="500">Website</text><text x="900" y="492" font-size="12" fill="#93A2BC" font-weight="500">M. Ortiz</text><rect x="1030" y="478" width="39" height="22" rx="11" fill="#F59E0B" opacity="0.18"/><text x="1049.5" y="493" text-anchor="middle" font-size="11" font-weight="700" fill="#F59E0B">F&amp;I</text><rect x="264" y="510" width="924" height="34" rx="8" fill="transparent"/><circle cx="288" cy="528" r="11" fill="#5B6B86" opacity="0.2"/><text x="288" y="532" text-anchor="middle" font-size="10" font-weight="700" fill="#5B6B86">S</text><text x="308" y="532" font-size="12.5" fill="#E6EDF7" font-weight="700">Sofia Ramos</text><text x="470" y="532" font-size="12" fill="#93A2BC" font-weight="500">2021 Mazda CX-5 GT</text><text x="760" y="532" font-size="12" fill="#93A2BC" font-weight="500">Referral</text><text x="900" y="532" font-size="12" fill="#93A2BC" font-weight="500">J. Patel</text><rect x="1030" y="518" width="95" height="22" rx="11" fill="#5B6B86" opacity="0.18"/><text x="1077.5" y="533" text-anchor="middle" font-size="11" font-weight="700" fill="#5B6B86">Uncontacted</text><rect x="264" y="550" width="924" height="34" rx="8" fill="#101828"/><circle cx="288" cy="568" r="11" fill="#10B981" opacity="0.2"/><text x="288" y="572" text-anchor="middle" font-size="10" font-weight="700" fill="#10B981">O</text><text x="308" y="572" font-size="12.5" fill="#E6EDF7" font-weight="700">Owen Clarke</text><text x="470" y="572" font-size="12" fill="#93A2BC" font-weight="500">2023 Hyundai Tucson N</text><text x="760" y="572" font-size="12" fill="#93A2BC" font-weight="500">Facebook</text><text x="900" y="572" font-size="12" fill="#93A2BC" font-weight="500">M. Ortiz</text><rect x="1030" y="558" width="81" height="22" rx="11" fill="#10B981" opacity="0.18"/><text x="1070.5" y="573" text-anchor="middle" font-size="11" font-weight="700" fill="#10B981">Delivered</text>
</svg>