<svg xmlns="http://www.w3.org/2000/svg" viewBox="0 0 1240 780" font-family="Inter,Segoe UI,Arial,sans-serif">
  <defs>
    <linearGradient id="hero" x1="0" y1="0" x2="1" y2="1">
      <stop offset="0" stop-color="#6366F1"/><stop offset="1" stop-color="#A78BFA"/>
    </linearGradient>
    <filter id="sh" x="-20%" y="-20%" width="140%" height="140%">
      <feDropShadow dx="0" dy="10" stdDeviation="16" flood-color="#000" flood-opacity="0.35"/>
    </filter>
  </defs>
  <rect width="1240" height="780" rx="18" fill="#0B0F19"/>
  <!-- window chrome -->
  <rect width="1240" height="46" rx="18" fill="#0F1626"/>
  <rect y="30" width="1240" height="16" fill="#0F1626"/>
  <circle cx="28" cy="23" r="6" fill="#FF5F57"/><circle cx="50" cy="23" r="6" fill="#FEBC2E"/><circle cx="72" cy="23" r="6" fill="#28C840"/>
  <rect x="470" y="13" width="300" height="20" rx="10" fill="#0A0F1B"/>
  <text x="620" y="27" text-anchor="middle" font-size="11" fill="#5B6B86">app.marketsync.link</text>
  <!-- sidebar -->
  <rect x="0" y="46" width="208" height="734" fill="#0E1424"/>
  <line x1="208" y1="46" x2="208" y2="780" stroke="#1F2A3D"/>
  <text x="24" y="82" font-size="20" fill="#fff" font-weight="400">|</text>
  <text x="40" y="84" font-size="17" font-weight="800" fill="#fff">Market<tspan fill="#6366F1">Sync</tspan></text>
  <g transform="translate(20 118)">
      
      <circle cx="10" cy="3" r="12" fill="#182236" opacity="1"/>
      <path d="M3 12l9-9 9 9M5 10v9h5v-6h4v6h5v-9" transform="translate(2 -5) scale(0.66)" fill="none" stroke="#93A2BC" stroke-width="2" stroke-linecap="round" stroke-linejoin="round"/>
      <text x="32" y="8" font-size="14" font-weight="500" fill="#93A2BC" font-family="Inter,Arial,sans-serif">Dashboard</text>
    </g><g transform="translate(20 164)">
      
      <circle cx="10" cy="3" r="12" fill="#182236" opacity="1"/>
      <path d="M4 5h16v4H4zM4 11h16v8H4" transform="translate(2 -5) scale(0.66)" fill="none" stroke="#93A2BC" stroke-width="2" stroke-linecap="round" stroke-linejoin="round"/>
      <text x="32" y="8" font-size="14" font-weight="500" fill="#93A2BC" font-family="Inter,Arial,sans-serif">Inventory</text>
    </g><g transform="translate(20 210)">
      
      <circle cx="10" cy="3" r="12" fill="#182236" opacity="1"/>
      <path d="M12 2a10 10 0 1010 10" transform="translate(2 -5) scale(0.66)" fill="none" stroke="#93A2BC" stroke-width="2" stroke-linecap="round" stroke-linejoin="round"/>
      <text x="32" y="8" font-size="14" font-weight="500" fill="#93A2BC" font-family="Inter,Arial,sans-serif">Intelligence</text>
    </g><g transform="translate(20 256)">
      <rect x="-6" y="-16" width="184" height="38" rx="9" fill="#6366F1" opacity="0.16"/><rect x="-6" y="-16" width="3" height="38" rx="1.5" fill="#6366F1"/>
      <circle cx="10" cy="3" r="12" fill="#6366F1" opacity="0.25"/>
      <path d="M4 4h16v12H4zM8 20h8" transform="translate(2 -5) scale(0.66)" fill="none" stroke="#6366F1" stroke-width="2" stroke-linecap="round" stroke-linejoin="round"/>
      <text x="32" y="8" font-size="14" font-weight="700" fill="#E6EDF7" font-family="Inter,Arial,sans-serif">Deals</text>
    </g><g transform="translate(20 302)">
      
      <circle cx="10" cy="3" r="12" fill="#182236" opacity="1"/>
      <path d="M3 6h18M3 12h18M3 18h12" transform="translate(2 -5) scale(0.66)" fill="none" stroke="#93A2BC" stroke-width="2" stroke-linecap="round" stroke-linejoin="round"/>
      <text x="32" y="8" font-size="14" font-weight="500" fill="#93A2BC" font-family="Inter,Arial,sans-serif">CRM</text>
    </g><g transform="translate(20 348)">
      
      <circle cx="10" cy="3" r="12" fill="#182236" opacity="1"/>
      <path d="M12 3l9 6-9 6-9-6z" transform="translate(2 -5) scale(0.66)" fill="none" stroke="#93A2BC" stroke-width="2" stroke-linecap="round" stroke-linejoin="round"/>
      <text x="32" y="8" font-size="14" font-weight="500" fill="#93A2BC" font-family="Inter,Arial,sans-serif">Reports</text>
    </g>
  <g transform="translate(20 720)"><circle cx="12" cy="0" r="14" fill="url(#hero)"/><text x="12" y="5" text-anchor="middle" font-size="12" font-weight="700" fill="#fff">RM</text>
    <text x="34" y="-2" font-size="12" font-weight="600" fill="#E6EDF7">Riverside Motors</text>
    <text x="34" y="14" font-size="10.5" fill="#5B6B86">Dealer Admin</text></g>
  <!-- top bar -->
  <text x="240" y="92" font-size="23" font-weight="800" fill="#E6EDF7">Deal Desk</text>
  <rect x="361" y="74" width="77.80000000000001" height="24" rx="12" fill="#6366F1" opacity="0.16"/>
  <text x="374" y="90" font-size="12" font-weight="700" fill="#A78BFA">DESKING</text>
  <rect x="980" y="70" width="236" height="34" rx="10" fill="#131A2C" stroke="#1F2A3D"/>
  <circle cx="1000" cy="87" r="6" fill="none" stroke="#5B6B86" stroke-width="2"/><line x1="1005" y1="92" x2="1010" y2="97" stroke="#5B6B86" stroke-width="2"/>
  <text x="1018" y="91" font-size="12" fill="#5B6B86">Search VIN, customer…</text>
  <line x1="208" y1="120" x2="1240" y2="120" stroke="#1F2A3D"/>
  <rect x="236" y="144" width="560" height="470" rx="14" fill="#131A2C" stroke="#1F2A3D"/><text x="260" y="178" font-size="15" fill="#E6EDF7" font-weight="700">Deal structure</text><rect x="690" y="162" width="86" height="22" rx="11" fill="#6366F1" opacity="0.18"/><text x="733" y="177" text-anchor="middle" font-size="11" font-weight="700" fill="#6366F1">DEAL #10428</text><text x="260" y="214" font-size="13" fill="#93A2BC" font-weight="500">Retail / MSRP</text><text x="772" y="214" font-size="14" fill="#E6EDF7" font-weight="700" text-anchor="end">$34,995</text><line x1="260" y1="230" x2="772" y2="230" stroke="#1F2A3D"/><text x="260" y="260" font-size="13" fill="#93A2BC" font-weight="500">Selling price</text><text x="772" y="260" font-size="14" fill="#E6EDF7" font-weight="700" text-anchor="end">$32,480</text><line x1="260" y1="276" x2="772" y2="276" stroke="#1F2A3D"/><text x="260" y="306" font-size="13" fill="#93A2BC" font-weight="500">Rebate (before tax)</text><text x="772" y="306" font-size="14" fill="#F43F5E" font-weight="700" text-anchor="end">−$1,500</text><line x1="260" y1="322" x2="772" y2="322" stroke="#1F2A3D"/><text x="260" y="352" font-size="13" fill="#93A2BC" font-weight="500">Trade allowance</text><text x="772" y="352" font-size="14" fill="#E6EDF7" font-weight="700" text-anchor="end">$9,000</text><line x1="260" y1="368" x2="772" y2="368" stroke="#1F2A3D"/><text x="260" y="398" font-size="13" fill="#93A2BC" font-weight="500">Trade payoff</text><text x="772" y="398" font-size="14" fill="#F43F5E" font-weight="700" text-anchor="end">−$6,240</text><line x1="260" y1="414" x2="772" y2="414" stroke="#1F2A3D"/><text x="260" y="444" font-size="13" fill="#93A2BC" font-weight="500">Doc &amp; admin fees</text><text x="772" y="444" font-size="14" fill="#E6EDF7" font-weight="700" text-anchor="end">$799</text><line x1="260" y1="460" x2="772" y2="460" stroke="#1F2A3D"/><text x="260" y="490" font-size="13" fill="#93A2BC" font-weight="500">Taxes (on difference)</text><text x="772" y="490" font-size="14" fill="#E6EDF7" font-weight="700" text-anchor="end">$3,046</text><line x1="260" y1="506" x2="772" y2="506" stroke="#1F2A3D"/><text x="260" y="556" font-size="13.5" fill="#E6EDF7" font-weight="700">Amount financed</text><text x="772" y="556" font-size="17" fill="#A78BFA" font-weight="800" text-anchor="end">$29,585</text><text x="260" y="586" font-size="12" fill="#5B6B86" font-weight="500">Est. payment · 72 mo @ 7.9%</text><text x="772" y="588" font-size="15" fill="#10B981" font-weight="800" text-anchor="end">$512 / mo</text><rect x="820" y="144" width="396" height="224" rx="14" fill="#131A2C" stroke="#1F2A3D"/><text x="844" y="178" font-size="14" fill="#E6EDF7" font-weight="700">Deal status</text><rect x="844" y="196" width="120" height="22" rx="11" fill="#F59E0B" opacity="0.18"/><text x="904" y="211" text-anchor="middle" font-size="11" font-weight="700" fill="#F59E0B">PENDING CREDIT</text><rect x="972" y="196" width="74" height="22" rx="11" fill="#A78BFA" opacity="0.18"/><text x="1009" y="211" text-anchor="middle" font-size="11" font-weight="700" fill="#A78BFA">TURNOVER</text><text x="844" y="246" font-size="12.5" fill="#93A2BC" font-weight="600">F&amp;I products</text><circle cx="852" cy="262" r="4" fill="#10B981"/><text x="866" y="266" font-size="12" fill="#E6EDF7" font-weight="500">Extended warranty  ·  $1,890</text><circle cx="852" cy="290" r="4" fill="#10B981"/><text x="866" y="294" font-size="12" fill="#E6EDF7" font-weight="500">GAP protection  ·  $699</text><circle cx="852" cy="318" r="4" fill="#10B981"/><text x="866" y="322" font-size="12" fill="#E6EDF7" font-weight="500">Paint &amp; fabric  ·  $499</text><rect x="844" y="340" width="168" height="38" rx="10" fill="#182236"/><text x="928" y="364" text-anchor="middle" font-size="13" font-weight="700" fill="#fff">Cash deal</text><rect x="844" y="340" width="168" height="38" rx="10" fill="#182236" stroke="#1F2A3D"/><text x="928" y="364" text-anchor="middle" font-size="13" font-weight="700" fill="#E6EDF7">Cash deal</text><rect x="1024" y="340" width="168" height="38" rx="10" fill="url(#hero)"/><text x="1108" y="364" text-anchor="middle" font-size="13" font-weight="700" fill="#fff">Mark sold</text><rect x="820" y="392" width="396" height="222" rx="14" fill="#131A2C" stroke="#1F2A3D"/><text x="844" y="426" font-size="14" fill="#E6EDF7" font-weight="700">Bill of sale · 6 pages</text><rect x="844" y="446" width="150" height="150" rx="8" fill="#0A0F1B" stroke="#1F2A3D"/><rect x="860" y="464" width="118" height="6" rx="3" fill="#22304A"/><rect x="860" y="482" width="98" height="6" rx="3" fill="#22304A"/><rect x="860" y="500" width="78" height="6" rx="3" fill="#22304A"/><rect x="860" y="518" width="118" height="6" rx="3" fill="#22304A"/><rect x="860" y="536" width="98" height="6" rx="3" fill="#22304A"/><rect x="860" y="554" width="78" height="6" rx="3" fill="#22304A"/><rect x="860" y="572" width="118" height="6" rx="3" fill="#22304A"/><rect x="860" y="560" width="60" height="18" rx="3" fill="none" stroke="#5B6B86"/><text x="890" y="573" text-anchor="middle" font-size="9" fill="#5B6B86">SIGN</text><text x="1014" y="470" font-size="12" fill="#93A2BC" font-weight="600">OMVIC-style agreement</text><text x="1014" y="492" font-size="11.5" fill="#5B6B86" font-weight="500">Rep + manager reg. IDs</text><text x="1014" y="512" font-size="11.5" fill="#5B6B86" font-weight="500">Customer &amp; deal numbers</text><rect x="1014" y="548" width="178" height="38" rx="10" fill="#6366F1"/><text x="1103" y="572" text-anchor="middle" font-size="13" font-weight="700" fill="#fff">Print bill of sale</text>
</svg>