<svg xmlns="http://www.w3.org/2000/svg" viewBox="0 0 1240 780" font-family="Inter,Segoe UI,Arial,sans-serif">
  <defs>
    <linearGradient id="hero" x1="0" y1="0" x2="1" y2="1">
      <stop offset="0" stop-color="#6366F1"/><stop offset="1" stop-color="#A78BFA"/>
    </linearGradient>
    <filter id="sh" x="-20%" y="-20%" width="140%" height="140%">
      <feDropShadow dx="0" dy="10" stdDeviation="16" flood-color="#000" flood-opacity="0.35"/>
    </filter>
  </defs>
  <rect width="1240" height="780" rx="18" fill="#0B0F19"/>
  <!-- window chrome -->
  <rect width="1240" height="46" rx="18" fill="#0F1626"/>
  <rect y="30" width="1240" height="16" fill="#0F1626"/>
  <circle cx="28" cy="23" r="6" fill="#FF5F57"/><circle cx="50" cy="23" r="6" fill="#FEBC2E"/><circle cx="72" cy="23" r="6" fill="#28C840"/>
  <rect x="470" y="13" width="300" height="20" rx="10" fill="#0A0F1B"/>
  <text x="620" y="27" text-anchor="middle" font-size="11" fill="#5B6B86">app.marketsync.link</text>
  <!-- sidebar -->
  <rect x="0" y="46" width="208" height="734" fill="#0E1424"/>
  <line x1="208" y1="46" x2="208" y2="780" stroke="#1F2A3D"/>
  <text x="24" y="82" font-size="20" fill="#fff" font-weight="400">|</text>
  <text x="40" y="84" font-size="17" font-weight="800" fill="#fff">Market<tspan fill="#6366F1">Sync</tspan></text>
  <g transform="translate(20 118)">
      <rect x="-6" y="-16" width="184" height="38" rx="9" fill="#6366F1" opacity="0.16"/><rect x="-6" y="-16" width="3" height="38" rx="1.5" fill="#6366F1"/>
      <circle cx="10" cy="3" r="12" fill="#6366F1" opacity="0.25"/>
      <path d="M3 12l9-9 9 9M5 10v9h5v-6h4v6h5v-9" transform="translate(2 -5) scale(0.66)" fill="none" stroke="#6366F1" stroke-width="2" stroke-linecap="round" stroke-linejoin="round"/>
      <text x="32" y="8" font-size="14" font-weight="700" fill="#E6EDF7" font-family="Inter,Arial,sans-serif">Dashboard</text>
    </g><g transform="translate(20 164)">
      
      <circle cx="10" cy="3" r="12" fill="#182236" opacity="1"/>
      <path d="M4 5h16v4H4zM4 11h16v8H4" transform="translate(2 -5) scale(0.66)" fill="none" stroke="#93A2BC" stroke-width="2" stroke-linecap="round" stroke-linejoin="round"/>
      <text x="32" y="8" font-size="14" font-weight="500" fill="#93A2BC" font-family="Inter,Arial,sans-serif">Inventory</text>
    </g><g transform="translate(20 210)">
      
      <circle cx="10" cy="3" r="12" fill="#182236" opacity="1"/>
      <path d="M12 2a10 10 0 1010 10" transform="translate(2 -5) scale(0.66)" fill="none" stroke="#93A2BC" stroke-width="2" stroke-linecap="round" stroke-linejoin="round"/>
      <text x="32" y="8" font-size="14" font-weight="500" fill="#93A2BC" font-family="Inter,Arial,sans-serif">Intelligence</text>
    </g><g transform="translate(20 256)">
      
      <circle cx="10" cy="3" r="12" fill="#182236" opacity="1"/>
      <path d="M4 4h16v12H4zM8 20h8" transform="translate(2 -5) scale(0.66)" fill="none" stroke="#93A2BC" stroke-width="2" stroke-linecap="round" stroke-linejoin="round"/>
      <text x="32" y="8" font-size="14" font-weight="500" fill="#93A2BC" font-family="Inter,Arial,sans-serif">Deals</text>
    </g><g transform="translate(20 302)">
      
      <circle cx="10" cy="3" r="12" fill="#182236" opacity="1"/>
      <path d="M3 6h18M3 12h18M3 18h12" transform="translate(2 -5) scale(0.66)" fill="none" stroke="#93A2BC" stroke-width="2" stroke-linecap="round" stroke-linejoin="round"/>
      <text x="32" y="8" font-size="14" font-weight="500" fill="#93A2BC" font-family="Inter,Arial,sans-serif">CRM</text>
    </g><g transform="translate(20 348)">
      
      <circle cx="10" cy="3" r="12" fill="#182236" opacity="1"/>
      <path d="M12 3l9 6-9 6-9-6z" transform="translate(2 -5) scale(0.66)" fill="none" stroke="#93A2BC" stroke-width="2" stroke-linecap="round" stroke-linejoin="round"/>
      <text x="32" y="8" font-size="14" font-weight="500" fill="#93A2BC" font-family="Inter,Arial,sans-serif">Reports</text>
    </g>
  <g transform="translate(20 720)"><circle cx="12" cy="0" r="14" fill="url(#hero)"/><text x="12" y="5" text-anchor="middle" font-size="12" font-weight="700" fill="#fff">RM</text>
    <text x="34" y="-2" font-size="12" font-weight="600" fill="#E6EDF7">Riverside Motors</text>
    <text x="34" y="14" font-size="10.5" fill="#5B6B86">Dealer Admin</text></g>
  <!-- top bar -->
  <text x="240" y="92" font-size="23" font-weight="800" fill="#E6EDF7">Website Builder</text>
  <rect x="439" y="74" width="107.4" height="24" rx="12" fill="#6366F1" opacity="0.16"/>
  <text x="452" y="90" font-size="12" font-weight="700" fill="#A78BFA">MERCHANDISE</text>
  <rect x="980" y="70" width="236" height="34" rx="10" fill="#131A2C" stroke="#1F2A3D"/>
  <circle cx="1000" cy="87" r="6" fill="none" stroke="#5B6B86" stroke-width="2"/><line x1="1005" y1="92" x2="1010" y2="97" stroke="#5B6B86" stroke-width="2"/>
  <text x="1018" y="91" font-size="12" fill="#5B6B86">Search VIN, customer…</text>
  <line x1="208" y1="120" x2="1240" y2="120" stroke="#1F2A3D"/>
  <rect x="236" y="144" width="190" height="470" rx="14" fill="#0F1626" stroke="#1F2A3D"/><text x="258" y="176" font-size="13" fill="#E6EDF7" font-weight="700">Sections</text><rect x="252" y="200" width="158" height="34" rx="8" fill="#111A2B" stroke="#1F2A3D"/><circle cx="266" cy="217" r="2" fill="#5B6B86"/><circle cx="266" cy="211" r="2" fill="#5B6B86"/><circle cx="266" cy="223" r="2" fill="#5B6B86"/><text x="280" y="222" font-size="12" fill="#93A2BC" font-weight="500">Hero banner</text><rect x="252" y="246" width="158" height="34" rx="8" fill="#111A2B" stroke="#1F2A3D"/><circle cx="266" cy="263" r="2" fill="#5B6B86"/><circle cx="266" cy="257" r="2" fill="#5B6B86"/><circle cx="266" cy="269" r="2" fill="#5B6B86"/><text x="280" y="268" font-size="12" fill="#A78BFA" font-weight="700">Inventory grid</text><rect x="252" y="292" width="158" height="34" rx="8" fill="#111A2B" stroke="#1F2A3D"/><circle cx="266" cy="309" r="2" fill="#5B6B86"/><circle cx="266" cy="303" r="2" fill="#5B6B86"/><circle cx="266" cy="315" r="2" fill="#5B6B86"/><text x="280" y="314" font-size="12" fill="#93A2BC" font-weight="500">Model pages</text><rect x="252" y="338" width="158" height="34" rx="8" fill="#111A2B" stroke="#1F2A3D"/><circle cx="266" cy="355" r="2" fill="#5B6B86"/><circle cx="266" cy="349" r="2" fill="#5B6B86"/><circle cx="266" cy="361" r="2" fill="#5B6B86"/><text x="280" y="360" font-size="12" fill="#93A2BC" font-weight="500">Finance form</text><rect x="252" y="384" width="158" height="34" rx="8" fill="#111A2B" stroke="#1F2A3D"/><circle cx="266" cy="401" r="2" fill="#5B6B86"/><circle cx="266" cy="395" r="2" fill="#5B6B86"/><circle cx="266" cy="407" r="2" fill="#5B6B86"/><text x="280" y="406" font-size="12" fill="#93A2BC" font-weight="500">Trade form</text><rect x="252" y="430" width="158" height="34" rx="8" fill="#111A2B" stroke="#1F2A3D"/><circle cx="266" cy="447" r="2" fill="#5B6B86"/><circle cx="266" cy="441" r="2" fill="#5B6B86"/><circle cx="266" cy="453" r="2" fill="#5B6B86"/><text x="280" y="452" font-size="12" fill="#93A2BC" font-weight="500">Specials</text><rect x="252" y="476" width="158" height="34" rx="8" fill="#111A2B" stroke="#1F2A3D"/><circle cx="266" cy="493" r="2" fill="#5B6B86"/><circle cx="266" cy="487" r="2" fill="#5B6B86"/><circle cx="266" cy="499" r="2" fill="#5B6B86"/><text x="280" y="498" font-size="12" fill="#93A2BC" font-weight="500">Reviews</text><rect x="252" y="522" width="158" height="34" rx="8" fill="#111A2B" stroke="#1F2A3D"/><circle cx="266" cy="539" r="2" fill="#5B6B86"/><circle cx="266" cy="533" r="2" fill="#5B6B86"/><circle cx="266" cy="545" r="2" fill="#5B6B86"/><text x="280" y="544" font-size="12" fill="#93A2BC" font-weight="500">AI chat</text><rect x="440" y="144" width="776" height="470" rx="14" fill="#131A2C" stroke="#1F2A3D"/><rect x="440" y="144" width="776" height="42" rx="14" fill="#0A0F1B"/><rect x="440" y="172" width="776" height="14" fill="#0A0F1B"/><circle cx="462" cy="165" r="4" fill="#FF5F57"/><circle cx="478" cy="165" r="4" fill="#FEBC2E"/><circle cx="494" cy="165" r="4" fill="#28C840"/><rect x="520" y="156" width="380" height="18" rx="9" fill="#131C2D"/><text x="710" y="169" text-anchor="middle" font-size="10.5" fill="#5B6B86">riversidemotors.ca</text><rect x="1120" y="155" width="80" height="22" rx="11" fill="#10B981" opacity="0.18"/><text x="1160" y="170" text-anchor="middle" font-size="11" font-weight="700" fill="#10B981">● LIVE</text><rect x="464" y="204" width="728" height="86" rx="10" fill="url(#hero)"/><text x="486" y="244" font-size="20" fill="#fff" font-weight="800">Riverside Motors</text><text x="486" y="270" font-size="12" fill="#E9E4FF" font-weight="500">142 vehicles in stock · financing for every credit</text><rect x="1050" y="228" width="120" height="34" rx="8" fill="#fff"/><text x="1110" y="250" text-anchor="middle" font-size="12" font-weight="700" fill="#6366F1">Shop now</text><rect x="464" y="306" width="228" height="132" rx="10" fill="#0F1728" stroke="#1F2A3D"/><rect x="464" y="306" width="228" height="76" rx="10" fill="#16203450"/><path d="M504 362 q10 -26 30 -26 h50 q20 0 30 26" fill="none" stroke="#2E4062" stroke-width="3"/><circle cx="530" cy="364" r="9" fill="#22304A"/><circle cx="614" cy="364" r="9" fill="#22304A"/><text x="478" y="404" font-size="12" fill="#E6EDF7" font-weight="700">2021 RAV4 XLE</text><text x="478" y="424" font-size="13" fill="#10B981" font-weight="800">$32,480</text><rect x="614" y="410" width="64" height="18" rx="9" fill="#6366F1" opacity="0.18"/><text x="646" y="423" text-anchor="middle" font-size="9.5" font-weight="700" fill="#A78BFA">VIN page</text><rect x="710" y="306" width="228" height="132" rx="10" fill="#0F1728" stroke="#1F2A3D"/><rect x="710" y="306" width="228" height="76" rx="10" fill="#16203450"/><path d="M750 362 q10 -26 30 -26 h50 q20 0 30 26" fill="none" stroke="#2E4062" stroke-width="3"/><circle cx="776" cy="364" r="9" fill="#22304A"/><circle cx="860" cy="364" r="9" fill="#22304A"/><text x="724" y="404" font-size="12" fill="#E6EDF7" font-weight="700">2020 F-150 XLT</text><text x="724" y="424" font-size="13" fill="#10B981" font-weight="800">$41,900</text><rect x="860" y="410" width="64" height="18" rx="9" fill="#6366F1" opacity="0.18"/><text x="892" y="423" text-anchor="middle" font-size="9.5" font-weight="700" fill="#A78BFA">VIN page</text><rect x="956" y="306" width="228" height="132" rx="10" fill="#0F1728" stroke="#1F2A3D"/><rect x="956" y="306" width="228" height="76" rx="10" fill="#16203450"/><path d="M996 362 q10 -26 30 -26 h50 q20 0 30 26" fill="none" stroke="#2E4062" stroke-width="3"/><circle cx="1022" cy="364" r="9" fill="#22304A"/><circle cx="1106" cy="364" r="9" fill="#22304A"/><text x="970" y="404" font-size="12" fill="#E6EDF7" font-weight="700">2022 Civic Sport</text><text x="970" y="424" font-size="13" fill="#10B981" font-weight="800">$27,650</text><rect x="1106" y="410" width="64" height="18" rx="9" fill="#6366F1" opacity="0.18"/><text x="1138" y="423" text-anchor="middle" font-size="9.5" font-weight="700" fill="#A78BFA">VIN page</text><rect x="464" y="452" width="228" height="132" rx="10" fill="#0F1728" stroke="#1F2A3D"/><rect x="464" y="452" width="228" height="76" rx="10" fill="#16203450"/><path d="M504 508 q10 -26 30 -26 h50 q20 0 30 26" fill="none" stroke="#2E4062" stroke-width="3"/><circle cx="530" cy="510" r="9" fill="#22304A"/><circle cx="614" cy="510" r="9" fill="#22304A"/><text x="478" y="550" font-size="12" fill="#E6EDF7" font-weight="700">2019 Model 3</text><text x="478" y="570" font-size="13" fill="#10B981" font-weight="800">$33,200</text><rect x="614" y="556" width="64" height="18" rx="9" fill="#6366F1" opacity="0.18"/><text x="646" y="569" text-anchor="middle" font-size="9.5" font-weight="700" fill="#A78BFA">VIN page</text><rect x="710" y="452" width="228" height="132" rx="10" fill="#0F1728" stroke="#1F2A3D"/><rect x="710" y="452" width="228" height="76" rx="10" fill="#16203450"/><path d="M750 508 q10 -26 30 -26 h50 q20 0 30 26" fill="none" stroke="#2E4062" stroke-width="3"/><circle cx="776" cy="510" r="9" fill="#22304A"/><circle cx="860" cy="510" r="9" fill="#22304A"/><text x="724" y="550" font-size="12" fill="#E6EDF7" font-weight="700">2021 CX-5 GT</text><text x="724" y="570" font-size="13" fill="#10B981" font-weight="800">$29,995</text><rect x="860" y="556" width="64" height="18" rx="9" fill="#6366F1" opacity="0.18"/><text x="892" y="569" text-anchor="middle" font-size="9.5" font-weight="700" fill="#A78BFA">VIN page</text><rect x="956" y="452" width="228" height="132" rx="10" fill="#0F1728" stroke="#1F2A3D"/><rect x="956" y="452" width="228" height="76" rx="10" fill="#16203450"/><path d="M996 508 q10 -26 30 -26 h50 q20 0 30 26" fill="none" stroke="#2E4062" stroke-width="3"/><circle cx="1022" cy="510" r="9" fill="#22304A"/><circle cx="1106" cy="510" r="9" fill="#22304A"/><text x="970" y="550" font-size="12" fill="#E6EDF7" font-weight="700">2023 Tucson N</text><text x="970" y="570" font-size="13" fill="#10B981" font-weight="800">$34,700</text><rect x="1106" y="556" width="64" height="18" rx="9" fill="#6366F1" opacity="0.18"/><text x="1138" y="569" text-anchor="middle" font-size="9.5" font-weight="700" fill="#A78BFA">VIN page</text>
</svg>