<svg xmlns="http://www.w3.org/2000/svg" viewBox="0 0 380 760" font-family="Inter,Arial,sans-serif">
  <defs><linearGradient id="hero" x1="0" y1="0" x2="1" y2="1"><stop offset="0" stop-color="#6366F1"/><stop offset="1" stop-color="#A78BFA"/></linearGradient></defs>
  <rect width="380" height="760" rx="22" fill="#0B0F19"/>
  <rect width="380" height="72" rx="22" fill="#0F1626"/><rect y="40" width="380" height="32" fill="#0F1626"/>
  <text x="22" y="34" font-size="18" fill="#fff" font-weight="400">|</text><text x="36" y="36" font-size="15" font-weight="800" fill="#fff">Market<tspan fill="#6366F1">Sync</tspan></text>
  <rect x="250" y="20" width="108" height="22" rx="11" fill="#10B981" opacity="0.18"/><text x="304" y="35" text-anchor="middle" font-size="11" font-weight="700" fill="#10B981">● CONNECTED</text>
  <text x="22" y="60" font-size="11.5" fill="#5B6B86">Facebook Marketplace · Riverside Motors</text><rect x="18" y="88" width="344" height="46" rx="10" fill="#10B981" opacity="0.12"/><circle cx="42" cy="111" r="11" fill="#10B981" opacity="0.25"/><path d="M37 111 l4 4 l7 -8" fill="none" stroke="#10B981" stroke-width="2.5" stroke-linecap="round" stroke-linejoin="round"/><text x="62" y="107" font-size="13" fill="#10B981" font-weight="800">Safe to post</text><text x="62" y="124" font-size="11" fill="#93A2BC" font-weight="500">3 of 12 posted today · within limits</text><text x="22" y="164" font-size="13" fill="#E6EDF7" font-weight="700">Today’s queue</text><text x="358" y="164" font-size="11" fill="#5B6B86" font-weight="600" text-anchor="end">9 ready</text><rect x="18" y="182" width="344" height="84" rx="12" fill="#131A2C" stroke="#1F2A3D"/><rect x="30" y="194" width="84" height="60" rx="8" fill="#16203450"/><path d="M46 234 q8 -20 24 -20 h20 q16 0 24 20" fill="none" stroke="#2E4062" stroke-width="3"/><circle cx="60" cy="236" r="7" fill="#22304A"/><circle cx="100" cy="236" r="7" fill="#22304A"/><text x="128" y="216" font-size="13" fill="#E6EDF7" font-weight="700">2021 RAV4 XLE AWD</text><text x="128" y="238" font-size="13" fill="#10B981" font-weight="800">$32,480</text><rect x="270" y="210" width="86" height="30" rx="8" fill="url(#hero)"/><text x="313" y="230" text-anchor="middle" font-size="12" font-weight="700" fill="#fff">Post</text><rect x="18" y="278" width="344" height="84" rx="12" fill="#131A2C" stroke="#1F2A3D"/><rect x="30" y="290" width="84" height="60" rx="8" fill="#16203450"/><path d="M46 330 q8 -20 24 -20 h20 q16 0 24 20" fill="none" stroke="#2E4062" stroke-width="3"/><circle cx="60" cy="332" r="7" fill="#22304A"/><circle cx="100" cy="332" r="7" fill="#22304A"/><text x="128" y="312" font-size="13" fill="#E6EDF7" font-weight="700">2020 F-150 XLT</text><text x="128" y="334" font-size="13" fill="#10B981" font-weight="800">$41,900</text><rect x="270" y="306" width="86" height="30" rx="8" fill="url(#hero)"/><text x="313" y="326" text-anchor="middle" font-size="12" font-weight="700" fill="#fff">Post</text><rect x="18" y="374" width="344" height="84" rx="12" fill="#131A2C" stroke="#1F2A3D"/><rect x="30" y="386" width="84" height="60" rx="8" fill="#16203450"/><path d="M46 426 q8 -20 24 -20 h20 q16 0 24 20" fill="none" stroke="#2E4062" stroke-width="3"/><circle cx="60" cy="428" r="7" fill="#22304A"/><circle cx="100" cy="428" r="7" fill="#22304A"/><text x="128" y="408" font-size="13" fill="#E6EDF7" font-weight="700">2022 Civic Sport</text><text x="128" y="430" font-size="13" fill="#10B981" font-weight="800">$27,650</text><rect x="270" y="402" width="86" height="30" rx="8" fill="#10B981" opacity="0.16"/><text x="313" y="422" text-anchor="middle" font-size="12" font-weight="700" fill="#10B981">Posted ✓</text><rect x="18" y="470" width="344" height="84" rx="12" fill="#131A2C" stroke="#1F2A3D"/><rect x="30" y="482" width="84" height="60" rx="8" fill="#16203450"/><path d="M46 522 q8 -20 24 -20 h20 q16 0 24 20" fill="none" stroke="#2E4062" stroke-width="3"/><circle cx="60" cy="524" r="7" fill="#22304A"/><circle cx="100" cy="524" r="7" fill="#22304A"/><text x="128" y="504" font-size="13" fill="#E6EDF7" font-weight="700">2019 Model 3</text><text x="128" y="526" font-size="13" fill="#10B981" font-weight="800">$33,200</text><rect x="270" y="498" width="86" height="30" rx="8" fill="url(#hero)"/><text x="313" y="518" text-anchor="middle" font-size="12" font-weight="700" fill="#fff">Post</text><rect x="18" y="566" width="344" height="84" rx="12" fill="#131A2C" stroke="#1F2A3D"/><rect x="30" y="578" width="84" height="60" rx="8" fill="#16203450"/><path d="M46 618 q8 -20 24 -20 h20 q16 0 24 20" fill="none" stroke="#2E4062" stroke-width="3"/><circle cx="60" cy="620" r="7" fill="#22304A"/><circle cx="100" cy="620" r="7" fill="#22304A"/><text x="128" y="600" font-size="13" fill="#E6EDF7" font-weight="700">2021 CX-5 GT</text><text x="128" y="622" font-size="13" fill="#10B981" font-weight="800">$29,995</text><rect x="270" y="594" width="86" height="30" rx="8" fill="url(#hero)"/><text x="313" y="614" text-anchor="middle" font-size="12" font-weight="700" fill="#fff">Post</text><rect x="18" y="702" width="344" height="40" rx="10" fill="#6366F1"/><text x="190" y="727" text-anchor="middle" font-size="13" font-weight="700" fill="#fff">Post all 9 to Marketplace</text></svg>