<svg xmlns="http://www.w3.org/2000/svg" viewBox="0 0 1240 780" font-family="Inter,Segoe UI,Arial,sans-serif">
  <defs><linearGradient id="hero" x1="0" y1="0" x2="1" y2="1"><stop offset="0" stop-color="#6366F1"/><stop offset="1" stop-color="#A78BFA"/></linearGradient></defs>
  <rect width="1240" height="780" rx="18" fill="#0B0F19"/>
  <rect width="1240" height="46" rx="18" fill="#0F1626"/><rect y="30" width="1240" height="16" fill="#0F1626"/>
  <circle cx="28" cy="23" r="6" fill="#FF5F57"/><circle cx="50" cy="23" r="6" fill="#FEBC2E"/><circle cx="72" cy="23" r="6" fill="#28C840"/>
  <rect x="470" y="13" width="300" height="20" rx="10" fill="#0A0F1B"/><text x="620" y="27" text-anchor="middle" font-size="11" fill="#5B6B86">app.marketsync.link</text>
  <rect x="0" y="46" width="208" height="734" fill="#0E1424"/><line x1="208" y1="46" x2="208" y2="780" stroke="#1F2A3D"/>
  <text x="24" y="82" font-size="20" fill="#fff" font-weight="400">|</text><text x="40" y="84" font-size="17" font-weight="800" fill="#fff">Market<tspan fill="#6366F1">Sync</tspan></text>
  <g transform="translate(20 118)">
      
      <circle cx="10" cy="3" r="12" fill="#182236" opacity="1"/>
      <path d="M3 12l9-9 9 9M5 10v9h5v-6h4v6h5v-9" transform="translate(2 -5) scale(0.66)" fill="none" stroke="#93A2BC" stroke-width="2" stroke-linecap="round" stroke-linejoin="round"/>
      <text x="32" y="8" font-size="14" font-weight="500" fill="#93A2BC" font-family="Inter,Arial,sans-serif">Dashboard</text>
    </g><g transform="translate(20 164)">
      
      <circle cx="10" cy="3" r="12" fill="#182236" opacity="1"/>
      <path d="M4 5h16v4H4zM4 11h16v8H4" transform="translate(2 -5) scale(0.66)" fill="none" stroke="#93A2BC" stroke-width="2" stroke-linecap="round" stroke-linejoin="round"/>
      <text x="32" y="8" font-size="14" font-weight="500" fill="#93A2BC" font-family="Inter,Arial,sans-serif">Inventory</text>
    </g><g transform="translate(20 210)">
      
      <circle cx="10" cy="3" r="12" fill="#182236" opacity="1"/>
      <path d="M12 2a10 10 0 1010 10" transform="translate(2 -5) scale(0.66)" fill="none" stroke="#93A2BC" stroke-width="2" stroke-linecap="round" stroke-linejoin="round"/>
      <text x="32" y="8" font-size="14" font-weight="500" fill="#93A2BC" font-family="Inter,Arial,sans-serif">Intelligence</text>
    </g><g transform="translate(20 256)">
      
      <circle cx="10" cy="3" r="12" fill="#182236" opacity="1"/>
      <path d="M4 4h16v12H4zM8 20h8" transform="translate(2 -5) scale(0.66)" fill="none" stroke="#93A2BC" stroke-width="2" stroke-linecap="round" stroke-linejoin="round"/>
      <text x="32" y="8" font-size="14" font-weight="500" fill="#93A2BC" font-family="Inter,Arial,sans-serif">Deals</text>
    </g><g transform="translate(20 302)">
      
      <circle cx="10" cy="3" r="12" fill="#182236" opacity="1"/>
      <path d="M3 6h18M3 12h18M3 18h12" transform="translate(2 -5) scale(0.66)" fill="none" stroke="#93A2BC" stroke-width="2" stroke-linecap="round" stroke-linejoin="round"/>
      <text x="32" y="8" font-size="14" font-weight="500" fill="#93A2BC" font-family="Inter,Arial,sans-serif">CRM</text>
    </g><g transform="translate(20 348)">
      <rect x="-6" y="-16" width="184" height="38" rx="9" fill="#6366F1" opacity="0.16"/><rect x="-6" y="-16" width="3" height="38" rx="1.5" fill="#6366F1"/>
      <circle cx="10" cy="3" r="12" fill="#6366F1" opacity="0.25"/>
      <path d="M12 3l9 6-9 6-9-6z" transform="translate(2 -5) scale(0.66)" fill="none" stroke="#6366F1" stroke-width="2" stroke-linecap="round" stroke-linejoin="round"/>
      <text x="32" y="8" font-size="14" font-weight="700" fill="#E6EDF7" font-family="Inter,Arial,sans-serif">Reports</text>
    </g>
  <g transform="translate(20 720)"><circle cx="12" cy="0" r="14" fill="url(#hero)"/><text x="12" y="5" text-anchor="middle" font-size="12" font-weight="700" fill="#fff">RM</text><text x="34" y="-2" font-size="12" font-weight="600" fill="#E6EDF7">Riverside Motors</text><text x="34" y="14" font-size="10.5" fill="#5B6B86">Dealer Admin</text></g>
  <text x="240" y="92" font-size="23" font-weight="800" fill="#E6EDF7">Lot Health</text>
  <rect x="374" y="74" width="77.80000000000001" height="24" rx="12" fill="#6366F1" opacity="0.16"/><text x="387" y="90" font-size="12" font-weight="700" fill="#A78BFA">REPORTS</text>
  <rect x="980" y="70" width="236" height="34" rx="10" fill="#131A2C" stroke="#1F2A3D"/><circle cx="1000" cy="87" r="6" fill="none" stroke="#5B6B86" stroke-width="2"/><line x1="1005" y1="92" x2="1010" y2="97" stroke="#5B6B86" stroke-width="2"/><text x="1018" y="91" font-size="12" fill="#5B6B86">Search VIN, customer…</text>
  <line x1="208" y1="120" x2="1240" y2="120" stroke="#1F2A3D"/>
  <rect x="236" y="144" width="222" height="86" rx="14" fill="#131A2C" stroke="#1F2A3D"/><text x="258" y="178" font-size="12" fill="#93A2BC" font-weight="500">Front-line ready</text><text x="258" y="214" font-size="24" fill="#10B981" font-weight="800">118</text><rect x="482" y="144" width="222" height="86" rx="14" fill="#131A2C" stroke="#1F2A3D"/><text x="504" y="178" font-size="12" fill="#93A2BC" font-weight="500">In recon</text><text x="504" y="214" font-size="24" fill="#F59E0B" font-weight="800">16</text><rect x="728" y="144" width="222" height="86" rx="14" fill="#131A2C" stroke="#1F2A3D"/><text x="750" y="178" font-size="12" fill="#93A2BC" font-weight="500">Aged 60+ days</text><text x="750" y="214" font-size="24" fill="#F43F5E" font-weight="800">9</text><rect x="974" y="144" width="222" height="86" rx="14" fill="#131A2C" stroke="#1F2A3D"/><text x="996" y="178" font-size="12" fill="#93A2BC" font-weight="500">Avg lot age</text><text x="996" y="214" font-size="24" fill="#6366F1" font-weight="800">28d</text><rect x="236" y="254" width="600" height="360" rx="14" fill="#131A2C" stroke="#1F2A3D"/><text x="260" y="288" font-size="15" fill="#E6EDF7" font-weight="700">Aging buckets</text><text x="260" y="330" font-size="13" fill="#E6EDF7" font-weight="600">0–30 days</text><text x="812" y="330" font-size="12" fill="#93A2BC" font-weight="600" text-anchor="end">88 units</text><rect x="260" y="342" width="552" height="14" rx="4" fill="#1A2438"/><rect x="260" y="342" width="497" height="14" rx="4" fill="#10B981"/><text x="260" y="396" font-size="13" fill="#E6EDF7" font-weight="600">31–60 days</text><text x="812" y="396" font-size="12" fill="#93A2BC" font-weight="600" text-anchor="end">29 units</text><rect x="260" y="408" width="552" height="14" rx="4" fill="#1A2438"/><rect x="260" y="408" width="232" height="14" rx="4" fill="#F59E0B"/><text x="260" y="462" font-size="13" fill="#E6EDF7" font-weight="600">61–90 days</text><text x="812" y="462" font-size="12" fill="#93A2BC" font-weight="600" text-anchor="end">16 units</text><rect x="260" y="474" width="552" height="14" rx="4" fill="#1A2438"/><rect x="260" y="474" width="132" height="14" rx="4" fill="#F97316"/><text x="260" y="528" font-size="13" fill="#E6EDF7" font-weight="600">90+ days</text><text x="812" y="528" font-size="12" fill="#93A2BC" font-weight="600" text-anchor="end">9 units</text><rect x="260" y="540" width="552" height="14" rx="4" fill="#1A2438"/><rect x="260" y="540" width="77" height="14" rx="4" fill="#F43F5E"/><rect x="860" y="254" width="356" height="360" rx="14" fill="#131A2C" stroke="#1F2A3D"/><text x="884" y="288" font-size="14" fill="#E6EDF7" font-weight="700">Mix by kilometres</text><g transform="translate(1038 400)"><path d="M0 0 L0.0 -70.0 A70 70 0 0 1 68.8 13.1 Z" fill="#6366F1" opacity="0.85"/><path d="M0 0 L68.8 13.1 A70 70 0 0 1 -47.9 51.0 Z" fill="#A78BFA" opacity="0.85"/><path d="M0 0 L-47.9 51.0 A70 70 0 0 1 -53.9 -44.6 Z" fill="#38BDF8" opacity="0.85"/><path d="M0 0 L-53.9 -44.6 A70 70 0 0 1 -0.0 -70.0 Z" fill="#F59E0B" opacity="0.85"/><circle r="38" fill="#131A2C"/></g><rect x="884" y="520" width="12" height="12" rx="3" fill="#6366F1"/><text x="902" y="530" font-size="11.5" fill="#93A2BC" font-weight="600">&lt; 30k km</text><rect x="884" y="540" width="12" height="12" rx="3" fill="#A78BFA"/><text x="902" y="550" font-size="11.5" fill="#93A2BC" font-weight="600">30–60k</text><rect x="1050" y="520" width="12" height="12" rx="3" fill="#38BDF8"/><text x="1068" y="530" font-size="11.5" fill="#93A2BC" font-weight="600">60–100k</text><rect x="1050" y="540" width="12" height="12" rx="3" fill="#F59E0B"/><text x="1068" y="550" font-size="11.5" fill="#93A2BC" font-weight="600">100k+</text>
</svg>