<svg xmlns="http://www.w3.org/2000/svg" viewBox="0 0 1240 780" font-family="Inter,Segoe UI,Arial,sans-serif">
  <defs><linearGradient id="hero" x1="0" y1="0" x2="1" y2="1"><stop offset="0" stop-color="#6366F1"/><stop offset="1" stop-color="#A78BFA"/></linearGradient></defs>
  <rect width="1240" height="780" rx="18" fill="#0B0F19"/>
  <rect width="1240" height="46" rx="18" fill="#0F1626"/><rect y="30" width="1240" height="16" fill="#0F1626"/>
  <circle cx="28" cy="23" r="6" fill="#FF5F57"/><circle cx="50" cy="23" r="6" fill="#FEBC2E"/><circle cx="72" cy="23" r="6" fill="#28C840"/>
  <rect x="470" y="13" width="300" height="20" rx="10" fill="#0A0F1B"/><text x="620" y="27" text-anchor="middle" font-size="11" fill="#5B6B86">app.marketsync.link</text>
  <rect x="0" y="46" width="208" height="734" fill="#0E1424"/><line x1="208" y1="46" x2="208" y2="780" stroke="#1F2A3D"/>
  <text x="24" y="82" font-size="20" fill="#fff" font-weight="400">|</text><text x="40" y="84" font-size="17" font-weight="800" fill="#fff">Market<tspan fill="#6366F1">Sync</tspan></text>
  <g transform="translate(20 118)">
      
      <circle cx="10" cy="3" r="12" fill="#182236" opacity="1"/>
      <path d="M3 12l9-9 9 9M5 10v9h5v-6h4v6h5v-9" transform="translate(2 -5) scale(0.66)" fill="none" stroke="#93A2BC" stroke-width="2" stroke-linecap="round" stroke-linejoin="round"/>
      <text x="32" y="8" font-size="14" font-weight="500" fill="#93A2BC" font-family="Inter,Arial,sans-serif">Dashboard</text>
    </g><g transform="translate(20 164)">
      
      <circle cx="10" cy="3" r="12" fill="#182236" opacity="1"/>
      <path d="M4 5h16v4H4zM4 11h16v8H4" transform="translate(2 -5) scale(0.66)" fill="none" stroke="#93A2BC" stroke-width="2" stroke-linecap="round" stroke-linejoin="round"/>
      <text x="32" y="8" font-size="14" font-weight="500" fill="#93A2BC" font-family="Inter,Arial,sans-serif">Inventory</text>
    </g><g transform="translate(20 210)">
      <rect x="-6" y="-16" width="184" height="38" rx="9" fill="#6366F1" opacity="0.16"/><rect x="-6" y="-16" width="3" height="38" rx="1.5" fill="#6366F1"/>
      <circle cx="10" cy="3" r="12" fill="#6366F1" opacity="0.25"/>
      <path d="M12 2a10 10 0 1010 10" transform="translate(2 -5) scale(0.66)" fill="none" stroke="#6366F1" stroke-width="2" stroke-linecap="round" stroke-linejoin="round"/>
      <text x="32" y="8" font-size="14" font-weight="700" fill="#E6EDF7" font-family="Inter,Arial,sans-serif">Intelligence</text>
    </g><g transform="translate(20 256)">
      
      <circle cx="10" cy="3" r="12" fill="#182236" opacity="1"/>
      <path d="M4 4h16v12H4zM8 20h8" transform="translate(2 -5) scale(0.66)" fill="none" stroke="#93A2BC" stroke-width="2" stroke-linecap="round" stroke-linejoin="round"/>
      <text x="32" y="8" font-size="14" font-weight="500" fill="#93A2BC" font-family="Inter,Arial,sans-serif">Deals</text>
    </g><g transform="translate(20 302)">
      
      <circle cx="10" cy="3" r="12" fill="#182236" opacity="1"/>
      <path d="M3 6h18M3 12h18M3 18h12" transform="translate(2 -5) scale(0.66)" fill="none" stroke="#93A2BC" stroke-width="2" stroke-linecap="round" stroke-linejoin="round"/>
      <text x="32" y="8" font-size="14" font-weight="500" fill="#93A2BC" font-family="Inter,Arial,sans-serif">CRM</text>
    </g><g transform="translate(20 348)">
      
      <circle cx="10" cy="3" r="12" fill="#182236" opacity="1"/>
      <path d="M12 3l9 6-9 6-9-6z" transform="translate(2 -5) scale(0.66)" fill="none" stroke="#93A2BC" stroke-width="2" stroke-linecap="round" stroke-linejoin="round"/>
      <text x="32" y="8" font-size="14" font-weight="500" fill="#93A2BC" font-family="Inter,Arial,sans-serif">Reports</text>
    </g>
  <g transform="translate(20 720)"><circle cx="12" cy="0" r="14" fill="url(#hero)"/><text x="12" y="5" text-anchor="middle" font-size="12" font-weight="700" fill="#fff">RM</text><text x="34" y="-2" font-size="12" font-weight="600" fill="#E6EDF7">Riverside Motors</text><text x="34" y="14" font-size="10.5" fill="#5B6B86">Dealer Admin</text></g>
  <text x="240" y="92" font-size="23" font-weight="800" fill="#E6EDF7">Market &amp; Price</text>
  <rect x="426" y="74" width="114.80000000000001" height="24" rx="12" fill="#6366F1" opacity="0.16"/><text x="439" y="90" font-size="12" font-weight="700" fill="#A78BFA">INTELLIGENCE</text>
  <rect x="980" y="70" width="236" height="34" rx="10" fill="#131A2C" stroke="#1F2A3D"/><circle cx="1000" cy="87" r="6" fill="none" stroke="#5B6B86" stroke-width="2"/><line x1="1005" y1="92" x2="1010" y2="97" stroke="#5B6B86" stroke-width="2"/><text x="1018" y="91" font-size="12" fill="#5B6B86">Search VIN, customer…</text>
  <line x1="208" y1="120" x2="1240" y2="120" stroke="#1F2A3D"/>
  <rect x="236" y="144" width="560" height="180" rx="14" fill="#131A2C" stroke="#1F2A3D"/><text x="260" y="178" font-size="16" fill="#E6EDF7" font-weight="800">2020 Ford F-150 XLT SuperCrew</text><rect x="260" y="196" width="120" height="22" rx="11" fill="#10B981" opacity="0.18"/><text x="320" y="211" text-anchor="middle" font-size="11" font-weight="700" fill="#10B981">PRICED RIGHT</text><text x="260" y="252" font-size="12" fill="#93A2BC" font-weight="500">Your price</text><text x="260" y="286" font-size="26" fill="#E6EDF7" font-weight="800">$41,900</text><text x="430" y="252" font-size="12" fill="#93A2BC" font-weight="500">Market average</text><text x="430" y="286" font-size="22" fill="#A78BFA" font-weight="800">$43,250</text><text x="620" y="252" font-size="12" fill="#93A2BC" font-weight="500">Price to market</text><text x="620" y="286" font-size="22" fill="#10B981" font-weight="800">97%</text><rect x="236" y="340" width="560" height="274" rx="14" fill="#131A2C" stroke="#1F2A3D"/><text x="260" y="374" font-size="15" fill="#E6EDF7" font-weight="700">Price position vs. live market</text><rect x="260" y="420" width="512" height="12" rx="6" fill="url(#hero)"/><polygon points="490,410 500,410 495,420" fill="#E6EDF7"/><circle cx="495" cy="426" r="7" fill="#fff" stroke="#6366F1" stroke-width="3"/><text x="260" y="452" font-size="10.5" fill="#5B6B86" font-weight="500">Below market</text><text x="772" y="452" font-size="10.5" fill="#5B6B86" font-weight="500" text-anchor="end">Above market</text><text x="260" y="492" font-size="12" fill="#93A2BC" font-weight="600">Comparable listings</text><rect x="260" y="510" width="300" height="8" rx="4" fill="#1A2438"/><rect x="260" y="510" width="165" height="8" rx="4" fill="#2A3A57"/><text x="576" y="518" font-size="11" fill="#93A2BC" font-weight="600">$39,900 · 62k mi</text><rect x="260" y="534" width="300" height="8" rx="4" fill="#1A2438"/><rect x="260" y="534" width="216" height="8" rx="4" fill="#6366F1"/><text x="576" y="542" font-size="11" fill="#93A2BC" font-weight="600">$41,500 · 48k mi</text><rect x="260" y="558" width="300" height="8" rx="4" fill="#1A2438"/><rect x="260" y="558" width="264" height="8" rx="4" fill="#2A3A57"/><text x="576" y="566" font-size="11" fill="#93A2BC" font-weight="600">$43,900 · 39k mi</text><rect x="260" y="582" width="300" height="8" rx="4" fill="#1A2438"/><rect x="260" y="582" width="276" height="8" rx="4" fill="#2A3A57"/><text x="576" y="590" font-size="11" fill="#93A2BC" font-weight="600">$44,200 · 35k mi</text><rect x="820" y="144" width="396" height="470" rx="14" fill="#131A2C" stroke="#1F2A3D"/><text x="844" y="178" font-size="15" fill="#E6EDF7" font-weight="700">Recommendation</text><circle cx="1014" cy="300" r="92" fill="none" stroke="#1A2438" stroke-width="16"/><circle cx="1014" cy="300" r="92" fill="none" stroke="#10B981" stroke-width="16" stroke-linecap="round" stroke-dasharray="451 999" transform="rotate(-90 1014 300)"/><text x="1014" y="296" font-size="34" fill="#E6EDF7" font-weight="800" text-anchor="middle">78</text><text x="1014" y="320" font-size="10" fill="#5B6B86" font-weight="700" text-anchor="middle">HEALTH</text><text x="844" y="430" font-size="12" fill="#93A2BC" font-weight="500">Turn rate</text><text x="1192" y="430" font-size="12" fill="#10B981" font-weight="700" text-anchor="end">Fast · 21 days</text><text x="844" y="460" font-size="12" fill="#93A2BC" font-weight="500">Demand</text><text x="1192" y="460" font-size="12" fill="#F43F5E" font-weight="700" text-anchor="end">Hot</text><text x="844" y="490" font-size="12" fill="#93A2BC" font-weight="500">Age on lot</text><text x="1192" y="490" font-size="12" fill="#E6EDF7" font-weight="700" text-anchor="end">12 days</text><rect x="844" y="540" width="348" height="38" rx="10" fill="#10B981"/><text x="1018" y="564" text-anchor="middle" font-size="13" font-weight="700" fill="#fff">Hold price — selling well</text>
</svg>