<svg xmlns="http://www.w3.org/2000/svg" viewBox="0 0 620 800" font-family="Inter,Arial,sans-serif">
  <defs><linearGradient id="hero" x1="0" y1="0" x2="1" y2="0"><stop offset="0" stop-color="#6366F1"/><stop offset="1" stop-color="#A78BFA"/></linearGradient></defs>
  <rect width="620" height="800" rx="16" fill="#F8FAFC"/>
  <rect width="620" height="96" rx="16" fill="url(#hero)"/><rect y="60" width="620" height="36" fill="url(#hero)"/>
  <text x="34" y="46" font-size="24" font-weight="800" fill="#fff">2021 Toyota RAV4 XLE AWD</text>
  <text x="34" y="76" font-size="14" fill="#E9E4FF">VIN 2T3W1RFV6MW123456 · Stock #R1042 · 48,210 km</text>
  <rect x="470" y="26" width="118" height="44" rx="10" fill="#fff"/><text x="529" y="46" text-anchor="middle" font-size="12" fill="#5B6B86">PRICE</text><text x="529" y="64" text-anchor="middle" font-size="18" font-weight="800" fill="#6366F1">$32,480</text><rect x="34" y="140" width="264" height="52" rx="8" fill="#fff" stroke="#E2E8F0"/><text x="50" y="162" font-size="11" fill="#64748B" font-weight="600">Engine</text><text x="50" y="182" font-size="14" fill="#0F172A" font-weight="700">2.5L 4-Cyl</text><rect x="322" y="140" width="264" height="52" rx="8" fill="#fff" stroke="#E2E8F0"/><text x="338" y="162" font-size="11" fill="#64748B" font-weight="600">Drivetrain</text><text x="338" y="182" font-size="14" fill="#0F172A" font-weight="700">All-Wheel Drive</text><rect x="34" y="206" width="264" height="52" rx="8" fill="#fff" stroke="#E2E8F0"/><text x="50" y="228" font-size="11" fill="#64748B" font-weight="600">Transmission</text><text x="50" y="248" font-size="14" fill="#0F172A" font-weight="700">8-Speed Auto</text><rect x="322" y="206" width="264" height="52" rx="8" fill="#fff" stroke="#E2E8F0"/><text x="338" y="228" font-size="11" fill="#64748B" font-weight="600">Fuel economy</text><text x="338" y="248" font-size="14" fill="#0F172A" font-weight="700">29 mpg comb.</text><rect x="34" y="272" width="264" height="52" rx="8" fill="#fff" stroke="#E2E8F0"/><text x="50" y="294" font-size="11" fill="#64748B" font-weight="600">Exterior</text><text x="50" y="314" font-size="14" fill="#0F172A" font-weight="700">Magnetic Grey</text><rect x="322" y="272" width="264" height="52" rx="8" fill="#fff" stroke="#E2E8F0"/><text x="338" y="294" font-size="11" fill="#64748B" font-weight="600">Interior</text><text x="338" y="314" font-size="14" fill="#0F172A" font-weight="700">Black SofTex</text><text x="34" y="380" font-size="15" font-weight="800" fill="#0F172A">Key features</text><circle cx="40" cy="400" r="6" fill="#10B981" opacity="0.2"/><path d="M37 400 l3 3 l6 -7" fill="none" stroke="#10B981" stroke-width="2" stroke-linecap="round" stroke-linejoin="round"/><text x="56" y="404" font-size="12.5" fill="#334155">Adaptive cruise control</text><circle cx="328" cy="400" r="6" fill="#10B981" opacity="0.2"/><path d="M325 400 l3 3 l6 -7" fill="none" stroke="#10B981" stroke-width="2" stroke-linecap="round" stroke-linejoin="round"/><text x="344" y="404" font-size="12.5" fill="#334155">Lane-departure alert</text><circle cx="40" cy="430" r="6" fill="#10B981" opacity="0.2"/><path d="M37 430 l3 3 l6 -7" fill="none" stroke="#10B981" stroke-width="2" stroke-linecap="round" stroke-linejoin="round"/><text x="56" y="434" font-size="12.5" fill="#334155">Blind-spot monitor</text><circle cx="328" cy="430" r="6" fill="#10B981" opacity="0.2"/><path d="M325 430 l3 3 l6 -7" fill="none" stroke="#10B981" stroke-width="2" stroke-linecap="round" stroke-linejoin="round"/><text x="344" y="434" font-size="12.5" fill="#334155">Apple CarPlay &amp; Android Auto</text><circle cx="40" cy="460" r="6" fill="#10B981" opacity="0.2"/><path d="M37 460 l3 3 l6 -7" fill="none" stroke="#10B981" stroke-width="2" stroke-linecap="round" stroke-linejoin="round"/><text x="56" y="464" font-size="12.5" fill="#334155">Heated seats</text><circle cx="328" cy="460" r="6" fill="#10B981" opacity="0.2"/><path d="M325 460 l3 3 l6 -7" fill="none" stroke="#10B981" stroke-width="2" stroke-linecap="round" stroke-linejoin="round"/><text x="344" y="464" font-size="12.5" fill="#334155">Backup camera</text><circle cx="40" cy="490" r="6" fill="#10B981" opacity="0.2"/><path d="M37 490 l3 3 l6 -7" fill="none" stroke="#10B981" stroke-width="2" stroke-linecap="round" stroke-linejoin="round"/><text x="56" y="494" font-size="12.5" fill="#334155">Dual-zone climate</text><circle cx="328" cy="490" r="6" fill="#10B981" opacity="0.2"/><path d="M325 490 l3 3 l6 -7" fill="none" stroke="#10B981" stroke-width="2" stroke-linecap="round" stroke-linejoin="round"/><text x="344" y="494" font-size="12.5" fill="#334155">Keyless entry &amp; push start</text><rect x="34" y="560" width="552" height="120" rx="12" fill="#EEF2FF" stroke="#C7D2FE"/><text x="52" y="588" font-size="12" font-weight="800" fill="#6366F1">AI-WRITTEN OVERVIEW</text><text x="52" y="614" font-size="12.5" fill="#334155">This one-owner RAV4 XLE pairs efficient all-wheel drive with</text><text x="52" y="632" font-size="12.5" fill="#334155">Toyota Safety Sense — a smart, low-km SUV that’s ready for</text><text x="52" y="650" font-size="12.5" fill="#334155">anything from the commute to the cottage. Serviced, certified</text><text x="52" y="668" font-size="12.5" fill="#334155">and priced to move.</text><rect y="744" width="620" height="56" fill="#0F172A"/><text x="34" y="778" font-size="13" font-weight="700" fill="#fff">Riverside Motors</text><text x="586" y="778" text-anchor="end" font-size="12" fill="#94A3B8">Factory-style window sticker · MarketSync</text></svg>